<?xml version="1.0" encoding="utf-8"?>
<!-- Generator: Adobe Illustrator 16.0.0, SVG Export Plug-In . SVG Version: 6.00 Build 0)  -->
<!DOCTYPE svg PUBLIC "-//W3C//DTD SVG 1.1//EN" "http://www.w3.org/Graphics/SVG/1.1/DTD/svg11.dtd">
<svg version="1.1" id="Layer_1" xmlns="http://www.w3.org/2000/svg" xmlns:xlink="http://www.w3.org/1999/xlink" x="0px" y="0px"
	 width="16px" height="16px" viewBox="0 0 16 16" enable-background="new 0 0 16 16" xml:space="preserve">
<path d="M16,7.938c0,4.397-3.568,7.938-8,7.938c-4.432,0-8-3.54-8-7.938S3.568,0,8,0C12.432,0,16,3.54,16,7.938z M6,4.127
	C5.984,3.477,5.488,2.969,4.672,2.969c-0.8,0-1.328,0.508-1.328,1.159s0.512,1.159,1.312,1.159h0.016C5.488,5.287,6,4.778,6,4.127z
	 M5.664,6.287h-2v5.62h2V6.287z M12.992,8.922c0-1.81-0.896-2.969-2.336-2.969c-0.8,0-1.392,0.476-1.664,1.19L8.928,6.287H6.944
	c0.015,0.207,0.048,1.317,0.048,1.317v4.302h2V8.922c0-0.794,0.368-1.318,0.992-1.318c0.607,0,1.008,0.317,1.008,1.318v2.984h2
	V8.922z"/>
</svg>
